<svg xmlns="http://www.w3.org/2000/svg" xmlns:xlink="http://www.w3.org/1999/xlink" viewBox="0 0 67.87 102.64"><defs><style>.cls-1,.cls-3{stroke-miterlimit:10;}.cls-1{stroke-width:2.29px;fill:url(#Nueva_muestra_de_degradado_1);stroke:url(#Panal_Transparente);}.cls-2{stroke-linecap:round;stroke-linejoin:round;stroke-width:2.6px;fill:url(#Panal_Transparente-2);stroke:url(#Panal_Transparente-3);}.cls-3{fill:#fff;stroke:#fff;stroke-width:1.04px;}.cls-4{fill:url(#Panal_Transparente-4);}.cls-5{fill:url(#Panal_Transparente-5);}</style><linearGradient id="Nueva_muestra_de_degradado_1" x1="4.89" y1="39.55" x2="66.73" y2="39.55" gradientUnits="userSpaceOnUse"><stop offset="0" stop-color="#f29100" stop-opacity="0.5"/><stop offset="0.15" stop-color="#e3890a" stop-opacity="0.46"/><stop offset="0.4" stop-color="#ba7226" stop-opacity="0.36"/><stop offset="0.71" stop-color="#784e52" stop-opacity="0.18"/><stop offset="1" stop-color="#312782" stop-opacity="0"/></linearGradient><linearGradient id="Panal_Transparente" x1="3.75" y1="39.55" x2="67.87" y2="39.55" gradientUnits="userSpaceOnUse"><stop offset="0" stop-color="#ffc700"/><stop offset="1" stop-color="#fb8e00"/></linearGradient><linearGradient id="Panal_Transparente-2" x1="9.06" y1="19.76" x2="62.57" y2="19.76" xlink:href="#Panal_Transparente"/><linearGradient id="Panal_Transparente-3" x1="7.76" y1="19.76" x2="63.87" y2="19.76" xlink:href="#Panal_Transparente"/><linearGradient id="Panal_Transparente-4" x1="18.95" y1="0" x2="18.95" y2="16.01" xlink:href="#Panal_Transparente"/><linearGradient id="Panal_Transparente-5" x1="53.25" y1="0" x2="53.25" y2="16.01" xlink:href="#Panal_Transparente"/></defs><g id="Capa_2" data-name="Capa 2"><g id="pagina_4" data-name="pagina 4"><rect class="cls-1" x="4.89" y="10.23" width="61.84" height="58.64" rx="9.37"/><line class="cls-2" x1="9.06" y1="19.87" x2="62.57" y2="19.65"/><path class="cls-3" d="M24.63,35.12a3.69,3.69,0,0,1,4-3.29c2.59,0,3.78,1.66,3.78,3.39a2.83,2.83,0,0,1-1.89,2.84v0A3.38,3.38,0,0,1,33,41.62a4.06,4.06,0,0,1-4.44,4.24,4.11,4.11,0,0,1-4.38-3.6h1.07a3.29,3.29,0,0,0,3.39,2.61,3,3,0,0,0,3.23-3.21c0-2.16-1.42-3-3.42-3h-.8v-1h.64c2.06,0,3-.86,3-2.47a2.4,2.4,0,0,0-2.71-2.41,2.69,2.69,0,0,0-2.9,2.31Z" transform="translate(3.75)"/><path class="cls-3" d="M37.92,45.61V33.37A9,9,0,0,1,34.87,35V34a11.13,11.13,0,0,0,3.23-2H39V45.61Z" transform="translate(3.75)"/><rect class="cls-4" x="17.31" width="3.28" height="16.01" rx="1.31"/><rect class="cls-5" x="51.61" width="3.28" height="16.01" rx="1.31"/><text x="3.75"/></g></g></svg>