<svg xmlns="http://www.w3.org/2000/svg" viewBox="0 0 394 55.02"><defs><style>.cls-1{fill:none;stroke:#f2f2f2;stroke-miterlimit:10;stroke-width:2.37px;}</style></defs><g id="Capa_2" data-name="Capa 2"><g id="pagina_1" data-name="pagina 1"><g id="Ilustración_5" data-name="Ilustración 5"><line class="cls-1" x1="238.99" y1="27.58" x2="265.76" y2="27.82"/><line class="cls-1" x1="354.15" y1="26.89" x2="382.78" y2="27.14"/><path class="cls-1" d="M96.11,1.43,67.66,1.18a.24.24,0,0,0-.21.12L53,25.81a.28.28,0,0,0,0,.25L67.08,50.94l28.73.26,14.58-24.76L96.32,1.56A.28.28,0,0,0,96.11,1.43Z"/><path class="cls-1" d="M44.35,1.82,15.83,1.57a.27.27,0,0,0-.22.12L1.22,26.2a.23.23,0,0,0,0,.24l12.6,23.19,28.64.25"/><path class="cls-1" d="M131.56,2.59a2.56,2.56,0,0,0-2.25,1.68l-9.65,21.41a4.23,4.23,0,0,0,0,3.38l9.27,21.58a2.54,2.54,0,0,0,2.22,1.71l18.92.17a2.55,2.55,0,0,0,2.25-1.67"/><path class="cls-1" d="M208.59,53c0-4.29-.58-8.26-1.6-10.42L191.48,10.13c-4-8.37-10.65-8.43-14.79-.13L160.61,42.21c-1.07,2.14-1.75,6.1-1.78,10.39"/><path class="cls-1" d="M234.37,53.27c0-4.29-.57-8.26-1.6-10.42L216.87,9.52c-3.78-7.91-10.07-8-14-.13L186.4,42.44c-1.07,2.14-1.75,6.1-1.79,10.39"/><path class="cls-1" d="M279.83,3.06l-24.69-.22A3.61,3.61,0,0,0,252,4.63L239.53,25.77a3.62,3.62,0,0,0,0,3.63l12.15,21.48a3.37,3.37,0,0,0,2.91,1.72l24.83.22"/><path class="cls-1" d="M392.81,55c0-4.29-.57-8.26-1.6-10.41l-15.9-33.34c-3.78-7.91-10.07-8-14-.12L344.84,44.19c-1.07,2.13-1.75,6.09-1.79,10.38"/><path class="cls-1" d="M290.16,54.08l-.72-49.56A2.47,2.47,0,0,1,291.94,2h0a2.46,2.46,0,0,1,2,1.09L327.43,52.8a2.23,2.23,0,0,0,1.74,1h0a2.24,2.24,0,0,0,2.36-2.22L332,2.35"/></g></g></g></svg>