<svg xmlns="http://www.w3.org/2000/svg" xmlns:xlink="http://www.w3.org/1999/xlink" viewBox="0 0 812.84 626.77"><defs><style>.cls-1{fill:url(#Panal_Transparente);}.cls-2{fill:#fff;}</style><linearGradient id="Panal_Transparente" x1="-126.29" y1="339.85" x2="709.6" y2="339.85" gradientTransform="matrix(1.04, 0.54, -0.55, 1.14, 265.92, -201.13)" gradientUnits="userSpaceOnUse"><stop offset="0" stop-color="#ffc700"/><stop offset="1" stop-color="#fb8e00"/></linearGradient></defs><g id="Capa_2" data-name="Capa 2"><g id="pagina_11" data-name="pagina 11"><path class="cls-1" d="M643.12,625c2.31-7.73,9-13.28,17.93-14.75L792.5,588.47c6.71-1.14,11.82-5.36,13.51-11.36s-.42-12.2-5.53-16.77L492.13,285.41a20.21,20.21,0,0,0-16.43-4.81L350.56,300.7a21.6,21.6,0,0,1-17.95-5.37L17.79,9.46A14.89,14.89,0,0,0,6.16,5.7L4.86.14A22.19,22.19,0,0,1,22.1,5.68L336.93,291.55A14.83,14.83,0,0,0,349,295.26l126.9-20.43A23.51,23.51,0,0,1,495,280.41L804.69,556.52c6.87,6.06,9.64,14.46,7.37,22.39s-9,13.5-18,15L662.7,615.7c-6.71,1.14-11.79,5.26-13.53,11.07"/><path class="cls-2" d="M595.54,610.73c2.32-7.73,9-13.29,17.93-14.76l131.45-21.73c6.72-1.14,11.83-5.37,13.51-11.37s-.41-12.19-5.52-16.77L487.27,309a20.17,20.17,0,0,0-16.43-4.79L345.7,324.27a21.73,21.73,0,0,1-18-5.38L12.92,33A14.9,14.9,0,0,0,1.3,29.27L0,23.7a22.2,22.2,0,0,1,17.23,5.55L332.06,315.11a14.91,14.91,0,0,0,12.08,3.7L471,298.41a23.44,23.44,0,0,1,19,5.57l267,238.3c6.87,6.07,9.63,14.46,7.36,22.4s-9,13.5-18,15L615.13,601.46c-6.72,1.14-11.8,5.27-13.53,11.08"/></g></g></svg>