<svg xmlns="http://www.w3.org/2000/svg" xmlns:xlink="http://www.w3.org/1999/xlink" viewBox="0 0 63.15 78.38"><defs><style>.cls-1{stroke-miterlimit:10;stroke-width:2.28px;fill:url(#Nueva_muestra_de_degradado_1);stroke:url(#Panal_Transparente);}.cls-2,.cls-3{fill:none;stroke-linecap:round;stroke-linejoin:round;stroke-width:3.42px;}.cls-2{stroke:url(#Panal_Transparente-2);}.cls-3{stroke:url(#Panal_Transparente-3);}.cls-4{opacity:0.5;fill:url(#Naranja_amarillo);}.cls-5{fill:#ffc700;}.cls-6{fill:#b8edfb;opacity:0.64;}</style><linearGradient id="Nueva_muestra_de_degradado_1" x1="1.14" y1="39.19" x2="62.01" y2="39.19" gradientUnits="userSpaceOnUse"><stop offset="0" stop-color="#f29100" stop-opacity="0.5"/><stop offset="0.15" stop-color="#e3890a" stop-opacity="0.46"/><stop offset="0.4" stop-color="#ba7226" stop-opacity="0.36"/><stop offset="0.71" stop-color="#784e52" stop-opacity="0.18"/><stop offset="1" stop-color="#312782" stop-opacity="0"/></linearGradient><linearGradient id="Panal_Transparente" y1="39.19" x2="63.15" y2="39.19" gradientUnits="userSpaceOnUse"><stop offset="0" stop-color="#ffc700"/><stop offset="1" stop-color="#fb8e00"/></linearGradient><linearGradient id="Panal_Transparente-2" x1="19.28" y1="25.13" x2="47.14" y2="25.13" xlink:href="#Panal_Transparente"/><linearGradient id="Panal_Transparente-3" x1="10.16" y1="45.24" x2="53.54" y2="45.24" xlink:href="#Panal_Transparente"/><linearGradient id="Naranja_amarillo" x1="27.41" y1="66" x2="36.29" y2="66" gradientUnits="userSpaceOnUse"><stop offset="0" stop-color="#ffee26"/><stop offset="0.02" stop-color="#ffe921"/><stop offset="0.1" stop-color="#fdd60f"/><stop offset="0.19" stop-color="#fccb04"/><stop offset="0.28" stop-color="#fcc700"/><stop offset="0.67" stop-color="#f08e34"/><stop offset="0.89" stop-color="#e85f32"/><stop offset="1" stop-color="#e2312d"/></linearGradient></defs><g id="Capa_2" data-name="Capa 2"><g id="pagina_4" data-name="pagina 4"><path class="cls-1" d="M62,52.44c0,13.68-13.63,24.8-30.41,24.8S1.14,66.12,1.14,52.44A21.17,21.17,0,0,1,4.92,40.49a17,17,0,0,1-.54-4.29c0-6.11,3.28-11.62,8.52-15.5C13.77,9.76,22.48,1.14,33.06,1.14c11.17,0,20.25,9.58,20.25,21.39a4.57,4.57,0,0,1-.05.82A18.43,18.43,0,0,1,58.78,36.2a17,17,0,0,1-.55,4.29A21.1,21.1,0,0,1,62,52.44Z"/><path class="cls-2" d="M21,23.36a26.25,26.25,0,0,0,24.44,1"/><path class="cls-3" d="M11.87,43c8,3.75,25.75,7.7,40,0"/><ellipse class="cls-4" cx="31.85" cy="66" rx="4.44" ry="5.23"/><path d="M18.43,56.07a7.81,7.81,0,0,1,1,.83,18,18,0,0,1-6.11,8.57,8.36,8.36,0,0,1-1.14-.68,7,7,0,0,1-1.08-.94,18.08,18.08,0,0,0,6.07-8.53A7.63,7.63,0,0,1,18.43,56.07Z"/><path class="cls-5" d="M11.08,63.85C9,61.69,8.42,58.64,9.92,56.56s4.52-2.52,7.23-1.24A18.08,18.08,0,0,1,11.08,63.85Z"/><path class="cls-5" d="M19.41,56.9a7.34,7.34,0,0,1,1.66,2.49,18.1,18.1,0,0,1-4.85,6.86,7.4,7.4,0,0,1-2.92-.78A18,18,0,0,0,19.41,56.9Z"/><path d="M21.07,59.39a4.78,4.78,0,0,1-4.85,6.86A18.1,18.1,0,0,0,21.07,59.39Z"/><ellipse class="cls-6" cx="20.07" cy="58.84" rx="2.44" ry="3.93" transform="translate(-39.37 77.06) rotate(-88.22)"/><ellipse class="cls-6" cx="15.52" cy="65.15" rx="2.44" ry="3.93" transform="translate(-20.36 8.6) rotate(-18.99)"/><path d="M53.43,59.06A7.59,7.59,0,0,1,53,60.35,19.21,19.21,0,0,1,42.1,57.43a8.81,8.81,0,0,1,.26-1.4,8.41,8.41,0,0,1,.53-1.43,19.39,19.39,0,0,0,10.82,2.91A9.74,9.74,0,0,1,53.43,59.06Z"/><path class="cls-5" d="M42.89,54.6c1.38-2.92,4.23-4.6,6.87-3.88s4.22,3.59,4,6.79A19.39,19.39,0,0,1,42.89,54.6Z"/><path class="cls-5" d="M53,60.35A7.75,7.75,0,0,1,51.09,63a19.45,19.45,0,0,1-8.68-2.31,7.91,7.91,0,0,1-.31-3.21A19.21,19.21,0,0,0,53,60.35Z"/><path d="M51.09,63a5.11,5.11,0,0,1-8.68-2.31A19.45,19.45,0,0,0,51.09,63Z"/><ellipse class="cls-6" cx="51.27" cy="61.73" rx="2.61" ry="4.2" transform="translate(-17.03 19.61) rotate(-18.63)"/><ellipse class="cls-6" cx="43.25" cy="59.54" rx="4.2" ry="2.61" transform="translate(-27.96 40.99) rotate(-39.41)"/></g></g></svg>