<svg xmlns="http://www.w3.org/2000/svg" xmlns:xlink="http://www.w3.org/1999/xlink" viewBox="0 0 574.4 763.02"><defs><style>.cls-1,.cls-10,.cls-11,.cls-12,.cls-2,.cls-3,.cls-4,.cls-5,.cls-6,.cls-7,.cls-8,.cls-9{fill:none;stroke-miterlimit:10;stroke-width:2.37px;}.cls-1{stroke:url(#Degradado_sin_nombre_29);}.cls-2{stroke:url(#Degradado_sin_nombre_29-2);}.cls-3{stroke:url(#Degradado_sin_nombre_29-3);}.cls-4{stroke:url(#Degradado_sin_nombre_29-4);}.cls-5{stroke:url(#Degradado_sin_nombre_29-5);}.cls-6{stroke:url(#Degradado_sin_nombre_29-6);}.cls-7{stroke:url(#Degradado_sin_nombre_29-7);}.cls-8{stroke:url(#Degradado_sin_nombre_29-8);}.cls-9{stroke:url(#Degradado_sin_nombre_29-9);}.cls-10{stroke:url(#Degradado_sin_nombre_29-10);}.cls-11{stroke:url(#Degradado_sin_nombre_29-11);}.cls-12{stroke:url(#Degradado_sin_nombre_29-12);}</style><linearGradient id="Degradado_sin_nombre_29" x1="1287.27" y1="1369.14" x2="1465.67" y2="1369.14" gradientTransform="matrix(-0.5, -0.87, -0.87, 0.5, 2227.35, 1117.2)" gradientUnits="userSpaceOnUse"><stop offset="0" stop-color="#ffc700"/><stop offset="0" stop-color="#fb8e00" stop-opacity="0.2"/><stop offset="1" stop-color="#ffc500" stop-opacity="0.98"/></linearGradient><linearGradient id="Degradado_sin_nombre_29-2" x1="1287.31" y1="1521.33" x2="1465.7" y2="1521.33" xlink:href="#Degradado_sin_nombre_29"/><linearGradient id="Degradado_sin_nombre_29-3" x1="-180.7" y1="-14449.46" x2="-2.3" y2="-14449.46" gradientTransform="matrix(1, 0, 0, -1, 180.7, -13991.88)" xlink:href="#Degradado_sin_nombre_29"/><linearGradient id="Degradado_sin_nombre_29-4" x1="-180.7" y1="-14297.33" x2="-2.3" y2="-14297.33" gradientTransform="matrix(1, 0, 0, -1, 180.7, -13991.88)" xlink:href="#Degradado_sin_nombre_29"/><linearGradient id="Degradado_sin_nombre_29-5" x1="8851.11" y1="-15265.05" x2="9029.51" y2="-15265.05" gradientTransform="matrix(0.5, 0.87, 0.87, -0.5, 8838.96, -15221.74)" xlink:href="#Degradado_sin_nombre_29"/><linearGradient id="Degradado_sin_nombre_29-6" x1="8851.43" y1="-15112.36" x2="9029.83" y2="-15112.36" gradientTransform="matrix(0.5, 0.87, 0.87, -0.5, 8838.96, -15221.74)" xlink:href="#Degradado_sin_nombre_29"/><linearGradient id="Degradado_sin_nombre_29-7" x1="14155.81" y1="-7682.21" x2="14334.21" y2="-7682.21" gradientTransform="matrix(-0.5, 0.87, 0.87, 0.5, 14260.69, -8418.19)" xlink:href="#Degradado_sin_nombre_29"/><linearGradient id="Degradado_sin_nombre_29-8" x1="264.21" y1="305.45" x2="442.61" y2="305.45" gradientTransform="matrix(1, 0, 0, 1, 0, 0)" xlink:href="#Degradado_sin_nombre_29"/><linearGradient id="Degradado_sin_nombre_29-9" x1="264.21" y1="153.31" x2="442.61" y2="153.31" gradientTransform="matrix(1, 0, 0, 1, 0, 0)" xlink:href="#Degradado_sin_nombre_29"/><linearGradient id="Degradado_sin_nombre_29-10" x1="10895.02" y1="533.64" x2="11073.42" y2="533.64" gradientTransform="matrix(-1, 0, 0, 1, 11205.81, 0)" xlink:href="#Degradado_sin_nombre_29"/><linearGradient id="Degradado_sin_nombre_29-11" x1="10895.02" y1="381.51" x2="11073.42" y2="381.51" gradientTransform="matrix(-1, 0, 0, 1, 11205.81, 0)" xlink:href="#Degradado_sin_nombre_29"/><linearGradient id="Degradado_sin_nombre_29-12" x1="10895.02" y1="229.38" x2="11073.42" y2="229.38" gradientTransform="matrix(-1, 0, 0, 1, 11205.81, 0)" xlink:href="#Degradado_sin_nombre_29"/></defs><g id="Capa_2" data-name="Capa 2"><g id="pagina_12" data-name="pagina 12"><polygon class="cls-1" points="397.33 533.64 441.24 609.71 397.33 685.77 309.49 685.77 265.58 609.71 309.49 533.64 397.33 533.64"/><polygon class="cls-2" points="265.5 609.71 309.42 685.77 265.5 761.84 177.67 761.84 133.75 685.77 177.67 609.71 265.5 609.71"/><polygon class="cls-3" points="133.12 533.64 45.28 533.64 1.37 457.58 45.28 381.51 133.12 381.51 177.03 457.58 133.12 533.64"/><polygon class="cls-4" points="133.12 381.51 45.28 381.51 1.37 305.44 45.28 229.38 133.12 229.38 177.03 305.44 133.12 381.51"/><polygon class="cls-5" points="45.28 229.38 1.37 153.31 45.28 77.25 133.12 77.25 177.03 153.31 133.12 229.38 45.28 229.38"/><polygon class="cls-6" points="177.67 153.31 133.75 77.25 177.67 1.18 265.5 1.18 309.42 77.25 265.5 153.31 177.67 153.31"/><polygon class="cls-7" points="397.37 77.25 441.28 1.18 529.12 1.18 573.03 77.25 529.12 153.31 441.28 153.31 397.37 77.25"/><polygon class="cls-8" points="397.33 229.38 309.49 229.38 265.58 305.44 309.49 381.51 397.33 381.51 441.24 305.44 397.33 229.38"/><polygon class="cls-9" points="397.33 77.25 309.49 77.25 265.58 153.31 309.49 229.38 397.33 229.38 441.24 153.31 397.33 77.25"/><polygon class="cls-10" points="177.67 457.58 265.5 457.58 309.42 533.64 265.5 609.71 177.67 609.71 133.75 533.64 177.67 457.58"/><polygon class="cls-11" points="177.67 305.44 265.5 305.44 309.42 381.51 265.5 457.58 177.67 457.58 133.75 381.51 177.67 305.44"/><polygon class="cls-12" points="177.67 153.31 265.5 153.31 309.42 229.38 265.5 305.44 177.67 305.44 133.75 229.38 177.67 153.31"/></g></g></svg>