<svg xmlns="http://www.w3.org/2000/svg" xmlns:xlink="http://www.w3.org/1999/xlink" viewBox="0 0 281.49 247.53"><defs><style>.cls-1{fill:url(#Panal_Transparente);}.cls-2{fill:#b8edfb;opacity:0.64;}</style><linearGradient id="Panal_Transparente" y1="123.77" x2="281.49" y2="123.77" gradientUnits="userSpaceOnUse"><stop offset="0" stop-color="#ffc700"/><stop offset="1" stop-color="#fb8e00"/></linearGradient></defs><g id="Capa_2" data-name="Capa 2"><g id="pagina_12" data-name="pagina 12"><path class="cls-1" d="M204.12,0H77.38A14,14,0,0,0,65.25,7L1.88,116.76a14,14,0,0,0,0,14L65.25,240.53a14,14,0,0,0,12.13,7H204.12a14,14,0,0,0,12.13-7l63.37-109.76a14,14,0,0,0,0-14L216.25,7A14,14,0,0,0,204.12,0Z"/><path d="M105.65,107.56c5-18.31,19.11-31.41,35.55-31.29s30.28,13.38,35,31.67A146.39,146.39,0,0,1,105.65,107.56Z"/><path d="M177.87,125.85a41.18,41.18,0,0,1-.65,5.38,50.72,50.72,0,0,1-3.63,12.35,146.26,146.26,0,0,1-65.78-.47A52.26,52.26,0,0,1,104.4,131a51.47,51.47,0,0,1-.6-5.61A146.13,146.13,0,0,0,177.87,125.85Z"/><path d="M159.89,161.35a31.31,31.31,0,0,1-38.76-.38A147.94,147.94,0,0,0,159.89,161.35Z"/><ellipse class="cls-2" cx="167.87" cy="139.88" rx="16.9" ry="27.23" transform="translate(-49.31 115.84) rotate(-33.49)"/><ellipse class="cls-2" cx="114.03" cy="139.46" rx="27.23" ry="16.9" transform="translate(-65.77 150.57) rotate(-54.27)"/></g></g></svg>