<svg xmlns="http://www.w3.org/2000/svg" xmlns:xlink="http://www.w3.org/1999/xlink" viewBox="0 0 65.3 64.97"><defs><style>.cls-1,.cls-2,.cls-3{stroke-miterlimit:10;stroke-width:2.29px;}.cls-1{fill:url(#Nueva_muestra_de_degradado_1);stroke:url(#Panal_Transparente);}.cls-2{fill:url(#Nueva_muestra_de_degradado_1-2);stroke:url(#Panal_Transparente-2);}.cls-3{fill:url(#Nueva_muestra_de_degradado_1-3);stroke:url(#Panal_Transparente-3);}.cls-4{fill:url(#Nueva_muestra_de_degradado_1-4);}.cls-5{fill:url(#Nueva_muestra_de_degradado_1-5);}</style><linearGradient id="Nueva_muestra_de_degradado_1" x1="9.33" y1="13.39" x2="56.26" y2="13.39" gradientUnits="userSpaceOnUse"><stop offset="0" stop-color="#f29100" stop-opacity="0.5"/><stop offset="0.15" stop-color="#e3890a" stop-opacity="0.46"/><stop offset="0.4" stop-color="#ba7226" stop-opacity="0.36"/><stop offset="0.71" stop-color="#784e52" stop-opacity="0.18"/><stop offset="1" stop-color="#312782" stop-opacity="0"/></linearGradient><linearGradient id="Panal_Transparente" x1="8.19" y1="13.39" x2="57.4" y2="13.39" gradientUnits="userSpaceOnUse"><stop offset="0" stop-color="#ffc700"/><stop offset="1" stop-color="#fb8e00"/></linearGradient><linearGradient id="Nueva_muestra_de_degradado_1-2" x1="7.72" y1="42.58" x2="57.65" y2="42.58" xlink:href="#Nueva_muestra_de_degradado_1"/><linearGradient id="Panal_Transparente-2" x1="6.57" y1="42.58" x2="58.8" y2="42.58" xlink:href="#Panal_Transparente"/><linearGradient id="Nueva_muestra_de_degradado_1-3" x1="19.23" y1="61.46" x2="45.75" y2="61.46" xlink:href="#Nueva_muestra_de_degradado_1"/><linearGradient id="Panal_Transparente-3" x1="15.11" y1="61.16" x2="49.91" y2="61.16" xlink:href="#Panal_Transparente"/><linearGradient id="Nueva_muestra_de_degradado_1-4" x1="67.11" y1="44.54" x2="38.92" y2="44.75" gradientTransform="translate(33.14 -20.84) rotate(33.49)" xlink:href="#Nueva_muestra_de_degradado_1"/><linearGradient id="Nueva_muestra_de_degradado_1-5" x1="0" y1="44.38" x2="28.74" y2="44.38" gradientTransform="translate(42 6.8) rotate(54.27)" xlink:href="#Nueva_muestra_de_degradado_1"/></defs><g id="Capa_2" data-name="Capa 2"><g id="pagina_4" data-name="pagina 4"><path class="cls-1" d="M11.29,23.18a2.51,2.51,0,0,1-1.81-3.3C13.48,8.77,22.53,1.06,33,1.14S52.3,9,56.12,20.15a2.52,2.52,0,0,1-1.81,3.27A100.28,100.28,0,0,1,11.29,23.18Z"/><path class="cls-2" d="M54.63,35.89a2.48,2.48,0,0,1,3,2.82v0a35.44,35.44,0,0,1-2,7.23,2.52,2.52,0,0,1-1.81,1.51,100.24,100.24,0,0,1-42.42-.32,2.45,2.45,0,0,1-1.78-1.54,36.46,36.46,0,0,1-1.84-7l0-.22a2.5,2.5,0,0,1,3.06-2.77A100.13,100.13,0,0,0,54.63,35.89Z"/><path class="cls-3" d="M45.75,59.35a21.89,21.89,0,0,1-13.27,4.48A21.89,21.89,0,0,1,19.23,59.1,100.91,100.91,0,0,0,45.75,59.35Z"/><ellipse class="cls-4" cx="51.21" cy="44.66" rx="11.56" ry="18.63" transform="matrix(0.83, -0.55, 0.55, 0.83, -16.14, 35.67)"/><ellipse class="cls-5" cx="14.37" cy="44.38" rx="18.63" ry="11.56" transform="translate(-30.05 30.12) rotate(-54.27)"/></g></g></svg>