<svg xmlns="http://www.w3.org/2000/svg" xmlns:xlink="http://www.w3.org/1999/xlink" viewBox="0 0 67.94 67.94"><defs><style>.cls-1{stroke-miterlimit:10;fill:url(#Nueva_muestra_de_degradado_1);stroke:url(#Panal_Transparente);}.cls-1,.cls-4{stroke-width:2.02px;}.cls-2{fill:#ffc700;}.cls-3{fill:#b8edfb;opacity:0.64;}.cls-4{fill:none;stroke-linecap:round;stroke-linejoin:round;stroke:url(#Panal_Transparente-2);}</style><linearGradient id="Nueva_muestra_de_degradado_1" x1="3.1" y1="33.97" x2="66.23" y2="33.97" gradientUnits="userSpaceOnUse"><stop offset="0" stop-color="#f29100" stop-opacity="0.5"/><stop offset="0.15" stop-color="#e3890a" stop-opacity="0.46"/><stop offset="0.4" stop-color="#ba7226" stop-opacity="0.36"/><stop offset="0.71" stop-color="#784e52" stop-opacity="0.18"/><stop offset="1" stop-color="#312782" stop-opacity="0"/></linearGradient><linearGradient id="Panal_Transparente" y1="33.97" x2="67.94" y2="33.97" gradientUnits="userSpaceOnUse"><stop offset="0" stop-color="#ffc700"/><stop offset="1" stop-color="#fb8e00"/></linearGradient><linearGradient id="Panal_Transparente-2" x1="3.89" y1="49.7" x2="62.38" y2="49.7" xlink:href="#Panal_Transparente"/></defs><g id="Capa_2" data-name="Capa 2"><g id="pagina_4" data-name="pagina 4"><rect class="cls-1" x="1.01" y="1.01" width="65.91" height="65.91" rx="19.54"/><path d="M42.33,31.32a10,10,0,0,1-.55,1.51,22.47,22.47,0,0,1-12.69-3.41,11.65,11.65,0,0,1,.3-1.63A9.38,9.38,0,0,1,30,26.11a22.49,22.49,0,0,0,12.63,3.4A10.76,10.76,0,0,1,42.33,31.32Z"/><path class="cls-2" d="M30,26.11c1.61-3.41,4.94-5.37,8-4.52s4.93,4.19,4.61,7.92A22.49,22.49,0,0,1,30,26.11Z"/><path class="cls-2" d="M41.78,32.83a9.17,9.17,0,0,1-2.19,3,22.73,22.73,0,0,1-10.13-2.7,9.28,9.28,0,0,1-.37-3.75A22.47,22.47,0,0,0,41.78,32.83Z"/><path d="M39.59,35.87a6.31,6.31,0,0,1-5.91,1.65,6.3,6.3,0,0,1-4.22-4.35A22.73,22.73,0,0,0,39.59,35.87Z"/><ellipse class="cls-3" cx="39.8" cy="34.44" rx="3.05" ry="4.91" transform="translate(-8.92 14.52) rotate(-18.63)"/><ellipse class="cls-3" cx="30.43" cy="31.88" rx="4.91" ry="3.05" transform="translate(-13.32 26.57) rotate(-39.41)"/><path class="cls-4" d="M61.37,54.17A10.45,10.45,0,0,0,55,49.46c-8.4-2.5-12.43,6.9-22.3,8.9s-9.23-11.53-14.16-16.1S4.9,45.62,4.9,45.62"/></g></g></svg>