<svg xmlns="http://www.w3.org/2000/svg" xmlns:xlink="http://www.w3.org/1999/xlink" viewBox="0 0 76.2 71.07"><defs><style>.cls-1{fill:url(#Nueva_muestra_de_degradado_1);}.cls-2,.cls-3,.cls-4,.cls-5,.cls-6,.cls-7,.cls-8,.cls-9{fill:none;stroke-linecap:round;stroke-linejoin:round;}.cls-10,.cls-2,.cls-3,.cls-4,.cls-5,.cls-6,.cls-7,.cls-8,.cls-9{stroke-width:1.84px;}.cls-2{stroke:url(#Panal_Transparente);}.cls-3{stroke:url(#Panal_Transparente-2);}.cls-4{stroke:url(#Panal_Transparente-3);}.cls-5{stroke:url(#Panal_Transparente-4);}.cls-6{stroke:url(#Panal_Transparente-5);}.cls-7{stroke:url(#Panal_Transparente-6);}.cls-8{stroke:url(#Panal_Transparente-7);}.cls-9{stroke:url(#Panal_Transparente-8);}.cls-10{stroke-miterlimit:10;fill:url(#Panal_Transparente-9);stroke:url(#Panal_Transparente-10);}</style><linearGradient id="Nueva_muestra_de_degradado_1" x1="0.57" y1="35.27" x2="74.93" y2="35.27" gradientUnits="userSpaceOnUse"><stop offset="0" stop-color="#f29100" stop-opacity="0.5"/><stop offset="0.15" stop-color="#e3890a" stop-opacity="0.46"/><stop offset="0.4" stop-color="#ba7226" stop-opacity="0.36"/><stop offset="0.71" stop-color="#784e52" stop-opacity="0.18"/><stop offset="1" stop-color="#312782" stop-opacity="0"/></linearGradient><linearGradient id="Panal_Transparente" x1="8183.79" y1="608.82" x2="8988.3" y2="608.82" gradientTransform="translate(6055.52 6720.77) rotate(-136.07)" gradientUnits="userSpaceOnUse"><stop offset="0" stop-color="#ffc700"/><stop offset="1" stop-color="#fb8e00"/></linearGradient><linearGradient id="Panal_Transparente-2" x1="6146.08" y1="-2377.84" x2="6167.44" y2="-2377.84" gradientTransform="translate(1903.84 6354.96) rotate(-85.55)" xlink:href="#Panal_Transparente"/><linearGradient id="Panal_Transparente-3" x1="8183.79" y1="3289.86" x2="9069.14" y2="3289.86" gradientTransform="translate(8240.38 5112.46) rotate(-168.35)" xlink:href="#Panal_Transparente"/><linearGradient id="Panal_Transparente-4" x1="5539.24" y1="6804.16" x2="5561.26" y2="6804.16" gradientTransform="matrix(-0.64, 0.77, -0.77, -0.64, 8835.35, 98.48)" xlink:href="#Panal_Transparente"/><linearGradient id="Panal_Transparente-5" x1="-304.21" y1="3251.57" x2="-282.2" y2="3251.57" gradientTransform="matrix(0.77, 0.64, -0.64, 0.77, 2355.04, -2307.23)" xlink:href="#Panal_Transparente"/><linearGradient id="Panal_Transparente-6" x1="-201.41" y1="573.98" x2="-179.47" y2="573.98" gradientTransform="translate(301.4 -534.41) rotate(7.21)" xlink:href="#Panal_Transparente"/><linearGradient id="Panal_Transparente-7" x1="1404.05" y1="-1703.13" x2="1426.8" y2="-1703.13" gradientTransform="translate(-488.09 2171.57) rotate(-26.42)" xlink:href="#Panal_Transparente"/><linearGradient id="Panal_Transparente-8" x1="2290.42" y1="6458.29" x2="2312.7" y2="6458.29" gradientTransform="translate(6522.58 -2264.29) rotate(90)" xlink:href="#Panal_Transparente"/><linearGradient id="Panal_Transparente-9" x1="22.84" y1="36.28" x2="51.25" y2="36.28" gradientTransform="matrix(1, 0, 0, 1, 0, 0)" xlink:href="#Panal_Transparente"/><linearGradient id="Panal_Transparente-10" x1="21.92" y1="36.28" x2="52.17" y2="36.28" gradientTransform="matrix(1, 0, 0, 1, 0, 0)" xlink:href="#Panal_Transparente"/></defs><g id="Capa_2" data-name="Capa 2"><g id="pagina_4" data-name="pagina 4"><path class="cls-1" d="M74.93,37c0-4.65-4.41-8.52-10.41-9.77C68.79,21.43,69,14.37,64.8,11c-3.86-3.1-10.14-2.06-15.06,2.11C49.58,6.65,46,1.37,41,.75s-9.81,3.6-11.63,9.78c-3.77-4.06-8.89-5.78-12.9-3.84C11.72,9,10.23,15.52,12.66,21.91,6.13,22.44,1,26.13.59,31c-.37,4.64,3.72,8.83,9.6,10.53C5.47,47,4.68,54,8.61,57.7c3.61,3.38,10,2.82,15.19-1-.36,6.45,2.79,12,7.76,13,5.33,1.07,10.83-3.51,12.82-10.35.38.36.75.72,1.17,1.06,6.16,4.93,14.14,5.4,17.84,1,3.1-3.66,2.14-9.57-1.9-14.29C69,46.79,74.93,42.41,74.93,37Z"/><path class="cls-2" d="M24.15,56C18.61,61.59,13,62.53,8.79,58.61S4.89,47.38,10.43,41.8"/><path class="cls-3" d="M19.05,42.37a20.34,20.34,0,0,1-4.51.17c-8-.6-14-5.66-13.6-11.29s4.18-9,12.14-8.41"/><path class="cls-4" d="M44.38,59.35C42.77,67,37.59,71.1,31.91,70s-9-8.22-7.38-15.82A18.48,18.48,0,0,1,26,49.75"/><path class="cls-5" d="M61.74,47.57c6.16,4.93,5.69,9.79,2,14.14s-11.68,3.89-17.84-1A18,18,0,0,1,40.66,54"/><path class="cls-6" d="M50.22,12.89c5.07-6,10.6-5.94,15.08-2.35s4.25,10.76-.83,16.75"/><path class="cls-7" d="M30.29,11.42c1-7.7,5.27-11.12,11-10.41s9.62,7.52,8.62,15.22a22.69,22.69,0,0,1-1.87,6.12"/><path class="cls-8" d="M18.7,30.1a18,18,0,0,1-4.89-6c-3.55-6.95-2.22-14.62,3-17.13S29.09,8,32.64,15a18.71,18.71,0,0,1,1.43,3.72"/><path class="cls-9" d="M55.64,27.82A19.79,19.79,0,0,1,60.83,27c8,0,14.45,4.58,14.45,10.23S68.81,47.49,60.83,47.49a19.91,19.91,0,0,1-7.52-1.87"/><ellipse class="cls-10" cx="37.04" cy="36.28" rx="14.21" ry="13.43"/></g></g></svg>